<svg xmlns="http://www.w3.org/2000/svg" xmlns:xlink="http://www.w3.org/1999/xlink" viewBox="0 0 493.13 328.87"><defs><style>.cls-1,.cls-20{fill:#de8075;}.cls-2{fill:#714664;}.cls-3{fill:#f7a7aa;}.cls-4{fill:#ce375e;}.cls-5{isolation:isolate;}.cls-6{fill:url(#linear-gradient);}.cls-7{fill:#2b2b2b;}.cls-8{fill:#fa3174;}.cls-9{fill:#ce2463;}.cls-10{fill:#f0f0f0;}.cls-11{fill:#f7b978;}.cls-12{fill:#fdc0c6;}.cls-13{fill:#498fb3;}.cls-14{fill:#231f3b;}.cls-15{fill:#3b3663;}.cls-16{fill:#4db2ba;}.cls-17{fill:#4c3789;}.cls-18{clip-path:url(#clip-path);}.cls-19{fill:#0b2c54;}.cls-20{opacity:0.28;}.cls-20,.cls-22,.cls-25{mix-blend-mode:multiply;}.cls-21{clip-path:url(#clip-path-2);}.cls-22{fill:#b58684;opacity:0.53;}.cls-23{clip-path:url(#clip-path-3);}.cls-24{clip-path:url(#clip-path-4);}.cls-25{fill:#896e4c;opacity:0.29;}.cls-26{fill:#755337;}.cls-27{fill:#fb75b0;}.cls-28{fill:#606060;}.cls-29{clip-path:url(#clip-path-5);}.cls-30{fill:#f4f5ff;}.cls-31{clip-path:url(#clip-path-6);}.cls-32{fill:#fad374;}.cls-33{fill:#f7a8aa;}.cls-34{font-size:32px;fill:#fff;font-family:Poppins-Bold, Poppins;font-weight:700;}</style><linearGradient id="linear-gradient" y1="164.95" x2="493.13" y2="164.95" gradientUnits="userSpaceOnUse"><stop offset="0" stop-color="#dae3fe"/><stop offset="1" stop-color="#e9effd"/></linearGradient><clipPath id="clip-path"><path class="cls-1" d="M186.05,273.84l22.35,43.39-.67,7.49s-5.23,1.35-3.27,2.43,5.8.92,6.23-.25,3.85-12.2,2.87-12.74-3.42-1.59-3.42-1.59l-10.4-39.27Z"/></clipPath><clipPath id="clip-path-2"><path class="cls-2" d="M191.23,207.7s10.87,9.9,8.21,22.28c-9.3,43.28,11.58,61.87,11.58,61.87s-10.17,6.22-14.71,4.61c0,0-38.89-44.82-15.82-84.38C185.83,202.91,191.23,207.7,191.23,207.7Z"/></clipPath><clipPath id="clip-path-3"><path class="cls-1" d="M134.56,241.4l-32.9,36.73s-10.15-3.93-10.24-2.58c0,0,9.14,8.77,9.87,8s2.93-3.7,2.93-3.7l39.89-31.62Z"/></clipPath><clipPath id="clip-path-4"><path class="cls-3" d="M198.29,174.39a24,24,0,0,0,4.9-1.75c1.22-.82,5.58-4.19,5.57-6.84,0,0-4.72.61-5.2-3.13-.63-4.89,10-13.38,12.16-13.49s7.22-1.76,10.6,2.61-6,17.32-10.72,16.94c0,0-6.76,6.86-5.7,9.85,0,0-7.59,1.29-9.74-1.24S198.29,174.39,198.29,174.39Z"/></clipPath><clipPath id="clip-path-5"><polygon class="cls-2" points="216.74 214.92 224.11 179.77 186.59 165.58 179.06 205.97 216.74 214.92"/></clipPath><clipPath id="clip-path-6"><polygon class="cls-4" points="187.76 206.09 199.25 153.62 162.32 136.95 145.93 194.22 187.76 206.09"/></clipPath></defs><g class="cls-5"><g id="Layer_2" data-name="Layer 2"><g id="Layer_1-2" data-name="Layer 1"><path class="cls-6" d="M57.59,204.05c5.18,11.16,6.06,21.65,8,34,1.82,11.38,5.61,21.59,4.56,33.52-.9,10.32,1.32,18.17,7.14,27.11a64.89,64.89,0,0,0,53.94,29.16H253.71c24.8-.89,106.44-.66,115.51,0h93a16.27,16.27,0,0,0,13-6.41l.06-.07c8.92-11.86,13.3-28.12,16-44.21,5.93-35.72-3.27-58-16.73-88.24-9.47-21.26-10.23-39.5-5.33-62.71,5.4-25.64,10.63-58.38-2.31-81.69C455.52,24,437.6,9.42,418.39,4.06,394-2.75,373.6,8.27,354.05,26.56c-26.83,25.11-73.22,45.6-106.28,34.49-14.52-4.88-26.35-14.63-38-24-10.6-8.49-22.26-19.51-36.79-19.43a127.88,127.88,0,0,0-46.23,8.92c-13.6,5.39-26.39,13.16-40.81,15.84-16.86,3.12-34.86-1-51.1,4.43C21.65,51.19,11.08,61.63,5.44,74s-6.62,26.44-4.2,39.76a83.8,83.8,0,0,0,9.46,26.14c4.82,8.56,11.12,16.23,17.5,23.77,9.7,11.48,19.74,22.86,27.09,35.89Q56.57,201.83,57.59,204.05Z"/><path class="cls-7" d="M243.05,227.62a.23.23,0,0,1-.22-.26,51.37,51.37,0,0,1,.38-5.92c.57-4.51,1.63-7.73,3.17-9.59a4.41,4.41,0,0,1,3.71-1.78,6.05,6.05,0,0,1,4.9,2.58c2.49,3.46,2.46,9.86,2.06,15.72,0,.14-.11.26-.23.25h0a.25.25,0,0,1-.2-.28c.39-5.75.43-12-2-15.34a5.62,5.62,0,0,0-4.6-2.4,4,4,0,0,0-3.38,1.63c-3.22,3.87-3.41,13.42-3.42,15.12a.25.25,0,0,1-.21.27Z"/><path class="cls-8" d="M263,268.41c.37.38,5.05,1.37,5.05,1.37l1.52,3.43-5.52,1Z"/><polygon class="cls-9" points="268.18 225.12 269.75 222.8 269.57 273.21 266.63 271.32 264.06 274.18 268.18 225.12"/><polygon class="cls-2" points="234.21 219.74 269.75 222.8 264.06 274.18 229.77 271.46 234.21 219.74"/><path class="cls-10" d="M243.17,228.15c-.28,0-.55-.26-.59-.7s.16-.83.44-.88.55.26.59.7S243.46,228.1,243.17,228.15Z"/><path class="cls-10" d="M256.8,229.42c-.28,0-.51-.36-.5-.8s.25-.8.54-.8.51.36.5.8S257.09,229.42,256.8,229.42Z"/><path class="cls-7" d="M243.05,227.62a.23.23,0,0,1-.22-.26,51.37,51.37,0,0,1,.38-5.92c.57-4.51,1.63-7.73,3.17-9.59a4.41,4.41,0,0,1,3.71-1.78,6.05,6.05,0,0,1,4.9,2.58c2.49,3.46,2.46,9.86,2.06,15.72,0,.14-.11.26-.23.25h0a.25.25,0,0,1-.2-.28c.39-5.75.43-12-2-15.34a5.62,5.62,0,0,0-4.6-2.4,4,4,0,0,0-3.38,1.63c-3.22,3.87-3.41,13.42-3.42,15.12a.25.25,0,0,1-.21.27Z"/><path class="cls-11" d="M245.53,227.35a.24.24,0,0,1-.28-.18,37.26,37.26,0,0,1-.65-5.15c-.21-4,.34-6.93,1.64-8.81a5.08,5.08,0,0,1,3.61-2.23,7.22,7.22,0,0,1,5.64,1.28c3.25,2.49,4.35,8,5,13.07a.22.22,0,0,1-.2.26h0a.23.23,0,0,1-.26-.2c-.62-5-1.69-10.37-4.81-12.76a6.72,6.72,0,0,0-5.29-1.19,4.61,4.61,0,0,0-3.28,2c-2.72,3.93-1.22,12.15-.92,13.6a.25.25,0,0,1-.18.28Z"/><path class="cls-11" d="M273.9,258.51a44.73,44.73,0,0,0,5.58.22l2.23,2.65-5.66,1.87Z"/><polygon class="cls-2" points="271.65 220.44 272.91 218.16 281.71 261.38 278.26 260.31 276.05 263.25 271.65 220.44"/><polygon class="cls-11" points="234.77 222.27 272.91 218.16 276.05 263.25 239.3 267.41 234.77 222.27"/><path class="cls-11" d="M245.75,227.78a.72.72,0,0,1-.44-1.33.72.72,0,0,1,.44,1.33Z"/><path class="cls-11" d="M260.4,226.28a.72.72,0,1,1,.42-.79A.65.65,0,0,1,260.4,226.28Z"/><path class="cls-11" d="M245.53,227.35a.24.24,0,0,1-.28-.18,37.26,37.26,0,0,1-.65-5.15c-.21-4,.34-6.93,1.64-8.81a5.08,5.08,0,0,1,3.61-2.23,7.22,7.22,0,0,1,5.64,1.28c3.25,2.49,4.35,8,5,13.07a.22.22,0,0,1-.2.26h0a.23.23,0,0,1-.26-.2c-.62-5-1.69-10.37-4.81-12.76a6.72,6.72,0,0,0-5.29-1.19,4.61,4.61,0,0,0-3.28,2c-2.72,3.93-1.22,12.15-.92,13.6a.25.25,0,0,1-.18.28Z"/><path class="cls-12" d="M370.52,308.37l8.57,4.28,2.5-3.21-6.07-4.64S369.09,306.58,370.52,308.37Z"/><path class="cls-2" d="M380.52,309.5s-14.28,6.72-10.35,16l11.42-16"/><path class="cls-13" d="M330.89,227c.39.67,9.12,6.75,8.22,40,0,0,20.7,11.43,26.41,23.92s10,13.93,10,13.93l-5.35,7.85s-54.63-27.13-61.05-80S330.89,227,330.89,227Z"/><path class="cls-12" d="M267.22,315.51l1.47,9.47,4.06.17.27-7.63S267.84,313.31,267.22,315.51Z"/><path class="cls-2" d="M272.08,324.32s-13.75-7.75-19,.83l19.66,0"/><path class="cls-13" d="M310.62,236.06s-3,14.18-30.78,33c0,0,5.62,20.32-1.26,32.21S273,317.52,273,317.52l-9.5.18S253,255,292.34,219.11,310.62,236.06,310.62,236.06Z"/><path class="cls-12" d="M270.42,163.59c-9.91,8.14-19.22,21.38-22.31,42.87h7.21a67.47,67.47,0,0,1,23-31.61A17,17,0,0,0,270.42,163.59Z"/><path class="cls-12" d="M351.06,153a46.9,46.9,0,0,0-7.58-3,28.52,28.52,0,0,0-5.72,16.26c23.74-1.55,29.37,33.94,29.37,33.94l7.21-2S369.42,162.19,351.06,153Z"/><path class="cls-4" d="M311.06,149.08l-10.69,1.7-.13-.06a58.56,58.56,0,0,0-29.82,12.87,17,17,0,0,1,7.86,11.26,62.48,62.48,0,0,1,6.78-4.44c-5.62,22.06,1.41,53.75,1.41,53.75,3.61-1.31,15.41,1.64,25.9,3.61s20-7.22,20-7.22c-12.13-5.24-7.21-50.49-7.21-50.49a33,33,0,0,1,12.6-3.77A28.52,28.52,0,0,1,343.48,150C327.24,145.16,311.06,149.08,311.06,149.08Z"/><path class="cls-12" d="M294.34,120.55l-1.64,5.91s-6.56,9.5-1,10.16c0,0,2.29,7.21,6.23,8.2s.65,9.18.65,9.18,7.54,5.24,11.15-2c0,0-1.31-12.13.66-14.43s-2-14.42-2-14.42S298.28,116.29,294.34,120.55Z"/><path class="cls-7" d="M363.05,217.78a.22.22,0,0,1-.22-.25,51.51,51.51,0,0,1,.38-5.93c.57-4.5,1.63-7.73,3.17-9.58a4.45,4.45,0,0,1,3.71-1.79,6.05,6.05,0,0,1,4.9,2.58c2.49,3.46,2.46,9.86,2.07,15.72a.25.25,0,0,1-.24.25h0a.24.24,0,0,1-.2-.28c.39-5.75.43-12-2-15.33a5.62,5.62,0,0,0-4.6-2.41,4.07,4.07,0,0,0-3.38,1.63c-3.21,3.87-3.41,13.43-3.42,15.12a.24.24,0,0,1-.21.27Z"/><path class="cls-14" d="M383,258.58c.37.37,5.05,1.37,5.05,1.37l1.53,3.43-5.52,1Z"/><polygon class="cls-15" points="388.18 215.28 389.75 212.97 389.57 263.38 386.63 261.48 384.06 264.35 388.18 215.28"/><polygon class="cls-14" points="354.21 209.9 389.75 212.97 384.06 264.35 349.77 261.63 354.21 209.9"/><path class="cls-10" d="M363.17,218.32c-.28.05-.55-.27-.59-.7s.16-.84.44-.89.55.27.59.7S363.46,218.27,363.17,218.32Z"/><path class="cls-10" d="M376.8,219.58c-.28,0-.51-.36-.5-.8s.25-.8.54-.8.51.36.5.8S377.09,219.58,376.8,219.58Z"/><path class="cls-7" d="M363.05,217.78a.22.22,0,0,1-.22-.25,51.51,51.51,0,0,1,.38-5.93c.57-4.5,1.63-7.73,3.17-9.58a4.45,4.45,0,0,1,3.71-1.79,6.05,6.05,0,0,1,4.9,2.58c2.49,3.46,2.46,9.86,2.07,15.72a.25.25,0,0,1-.24.25h0a.24.24,0,0,1-.2-.28c.39-5.75.43-12-2-15.33a5.62,5.62,0,0,0-4.6-2.41,4.07,4.07,0,0,0-3.38,1.63c-3.21,3.87-3.41,13.43-3.42,15.12a.24.24,0,0,1-.21.27Z"/><path class="cls-7" d="M365.53,217.51a.23.23,0,0,1-.28-.18,37,37,0,0,1-.65-5.15c-.21-4,.35-6.93,1.64-8.81a5.14,5.14,0,0,1,3.61-2.23,7.26,7.26,0,0,1,5.64,1.28c3.25,2.5,4.35,8,5,13.08a.23.23,0,0,1-.2.26h0a.24.24,0,0,1-.26-.21c-.62-5-1.69-10.37-4.8-12.76a6.75,6.75,0,0,0-5.3-1.19,4.64,4.64,0,0,0-3.28,2c-2.72,3.92-1.22,12.14-.92,13.6a.24.24,0,0,1-.18.27Z"/><path class="cls-16" d="M393.9,248.67a44.73,44.73,0,0,0,5.58.22l2.23,2.65-5.66,1.88Z"/><polygon class="cls-4" points="391.66 210.61 392.91 208.33 401.71 251.54 398.26 250.47 396.05 253.42 391.66 210.61"/><polygon class="cls-16" points="354.77 212.43 392.91 208.33 396.05 253.42 359.3 257.58 354.77 212.43"/><path class="cls-10" d="M365.75,217.94a.71.71,0,1,1,.31-.84A.63.63,0,0,1,365.75,217.94Z"/><path class="cls-10" d="M380.4,216.44a.64.64,0,0,1-.68-.59.57.57,0,1,1,.68.59Z"/><path class="cls-7" d="M365.53,217.51a.23.23,0,0,1-.28-.18,37,37,0,0,1-.65-5.15c-.21-4,.35-6.93,1.64-8.81a5.14,5.14,0,0,1,3.61-2.23,7.26,7.26,0,0,1,5.64,1.28c3.25,2.5,4.35,8,5,13.08a.23.23,0,0,1-.2.26h0a.24.24,0,0,1-.26-.21c-.62-5-1.69-10.37-4.8-12.76a6.75,6.75,0,0,0-5.3-1.19,4.64,4.64,0,0,0-3.28,2c-2.72,3.92-1.22,12.14-.92,13.6a.24.24,0,0,1-.18.27Z"/><path class="cls-17" d="M301.23,135a14.67,14.67,0,0,1-9.51,1.64s-9.18,6.23-3,11.8,13.77.66,14.75-7.54,1-10.49,3.28-11.47,4.59,6.88-.33,7.87a3.49,3.49,0,0,0,2.95,3.27s3.94-2,2.95-6.23,11.81-13.77,0-14.09c0,0,0-8.86-5.9-5.91s-11.15-7.86-15.74-2.29-3,11.48,2,14.43l1.31-3.28s6.23-2,8.86,2.62S301.23,135,301.23,135Z"/><path class="cls-12" d="M367.46,198.26c-.66,1-4.34,5.36-1.35,6.28s8.29,1.37,9.41,0-1.18-6.28-1.18-6.28Z"/><path class="cls-12" d="M248.27,205.41c-.16,1.05-4.17,7.6-1.83,8.42s10.36.73,9.79-.86a39.41,39.41,0,0,1-.91-6.51Z"/><path class="cls-1" d="M186.05,273.84l22.35,43.39-.67,7.49s-5.23,1.35-3.27,2.43,5.8.92,6.23-.25,3.85-12.2,2.87-12.74-3.42-1.59-3.42-1.59l-10.4-39.27Z"/><g class="cls-18"><path class="cls-19" d="M208,319.54l.39-2.31s1.92-.07,1.85-1.79-.64-4,1.76-4.09,3.63,6.75,3.63,6.75l-2.11,7.54-2.29,3-6.71.27-2.05-3.37Z"/><path class="cls-20" d="M207.23,291.74c-.51.55-5,8.14-9.74,8.32s5.14-10.69,6.61-10.27A9.77,9.77,0,0,1,207.23,291.74Z"/></g><path class="cls-2" d="M191.23,207.7s10.87,9.9,8.21,22.28c-9.3,43.28,11.58,61.87,11.58,61.87s-10.17,6.22-14.71,4.61c0,0-38.89-44.82-15.82-84.38C185.83,202.91,191.23,207.7,191.23,207.7Z"/><g class="cls-21"><path class="cls-22" d="M191.31,231.6s.31,7.58-17.36,17.71-11.06-17.65-11.06-17.65S187,220.24,191.31,231.6Z"/></g><path class="cls-1" d="M134.56,241.4l-32.9,36.73s-10.15-3.93-10.24-2.58c0,0,9.14,8.77,9.87,8s2.93-3.7,2.93-3.7l39.89-31.62Z"/><g class="cls-23"><path class="cls-19" d="M104.49,280.85s-.9-1.58-1.93-1.13-.81-3-.81-3L90.3,272.31l-.78,6.49,14.2,8.54Z"/><path class="cls-20" d="M121.51,267.88s-8.22-2.55-7.63-6.65,9.23,1.51,9.23,1.51l.43,4.41Z"/></g><path class="cls-2" d="M198.77,220.93s-1.06,14.79-13.48,17.22c-43.43,8.52-57.73,32.11-57.73,32.11s-9.72-6.89-10-11.7c0,0,25.84-53.4,71.28-47.8C199.34,212.05,198.77,220.93,198.77,220.93Z"/><path class="cls-3" d="M198.29,174.39a24,24,0,0,0,4.9-1.75c1.22-.82,5.58-4.19,5.57-6.84,0,0-4.72.61-5.2-3.13-.63-4.89,10-13.38,12.16-13.49s7.22-1.76,10.6,2.61-6,17.32-10.72,16.94c0,0-6.76,6.86-5.7,9.85,0,0-7.59,1.29-9.74-1.24S198.29,174.39,198.29,174.39Z"/><g class="cls-24"><path class="cls-25" d="M207.55,166.62l1.21-.82s3.16.09,4.38-.73c0,0-3.15,2.56-5.18,2.16S207.55,166.62,207.55,166.62Z"/></g><path class="cls-26" d="M179.32,126.39a1.07,1.07,0,0,1,.64-.19,1,1,0,0,1,.66.27,1.24,1.24,0,0,1,.31.64c0,.11,0,.22,0,.33s0,.22-.07.32c-.08-.2-.15-.4-.22-.58a1.4,1.4,0,0,0-.29-.44A1.57,1.57,0,0,0,179.32,126.39Z"/><path class="cls-27" d="M193.59,220.46s-2.14-10.89-2.61-12.89,21.61-19.41,22.24-22.1.51-14-8.64-15.27-24,1.85-23.53,7.64-2.88,20.08-6.79,28.59c-2.44,5.32,2.41,10.89,6.4,14.33a8.66,8.66,0,0,0,9.1,1.37Z"/><path class="cls-17" d="M219.71,150.2a2.7,2.7,0,0,1,2,3.31c-.64,2.69-23.94,29.25-18,43.89s25.84,18.4,29.75,9.89-9-9.69-4-15.1,8.59-8.35.5-14-6.56-8.17-1.71-12.68,4.92-16.77-6.22-17.53a20.13,20.13,0,0,0-5.15-2.17c-2.69-.63-4.75,5.3-4.75,5.3S218.56,147.09,219.71,150.2Z"/><path class="cls-28" d="M206,135.66l.92.21c1.32-5.59,4.88-9.55,7.92-8.83s4.43,5.86,3.1,11.45l.92.22c1.48-6.2-.2-11.73-3.8-12.58S207.42,129.45,206,135.66Z"/><polygon class="cls-16" points="188.31 175.16 221.03 183.41 225.01 139.21 205.22 132.57 188.31 175.16"/><path class="cls-28" d="M207.89,135.63l.92.22c1.33-5.59,4.88-9.55,7.93-8.83s4.43,5.86,3.1,11.45l.92.22c1.47-6.2-.2-11.73-3.81-12.59S209.37,129.43,207.89,135.63Z"/><path class="cls-28" d="M181.56,107.53l.92.22c1.32-5.59,4.88-9.55,7.92-8.83s4.43,5.86,3.1,11.45l.92.22c1.48-6.2-.2-11.73-3.8-12.59S183,101.33,181.56,107.53Z"/><polygon class="cls-11" points="163.93 147.04 196.64 155.29 200.62 111.09 180.83 104.45 163.93 147.04"/><path class="cls-28" d="M183.5,107.51l.92.22c1.33-5.59,4.88-9.55,7.93-8.83s4.43,5.86,3.1,11.45l.92.22c1.47-6.2-.2-11.73-3.81-12.59S185,101.31,183.5,107.51Z"/><polygon class="cls-2" points="216.74 214.92 224.11 179.77 186.59 165.58 179.06 205.97 216.74 214.92"/><g class="cls-29"><path class="cls-30" d="M218.17,184.37a5.84,5.84,0,1,1,4.33,7A5.85,5.85,0,0,1,218.17,184.37Zm.48.11a5.35,5.35,0,1,0,6.44-4A5.37,5.37,0,0,0,218.65,184.48Z"/><path class="cls-30" d="M195.42,198.39a5.84,5.84,0,1,1,4.34,7A5.86,5.86,0,0,1,195.42,198.39Zm.48.11a5.35,5.35,0,1,0,6.44-4A5.36,5.36,0,0,0,195.9,198.5Z"/><path class="cls-30" d="M195.45,181.89a5.85,5.85,0,1,1,4.34,7A5.86,5.86,0,0,1,195.45,181.89Zm.49.11a5.35,5.35,0,1,0,6.44-4A5.36,5.36,0,0,0,195.94,182Z"/><path class="cls-30" d="M210.83,203a5.84,5.84,0,1,1,4.33,7A5.84,5.84,0,0,1,210.83,203Zm.48.11a5.35,5.35,0,1,0,6.44-4A5.36,5.36,0,0,0,211.31,203.13Z"/></g><polygon class="cls-4" points="187.76 206.09 199.25 153.62 162.32 136.95 145.93 194.22 187.76 206.09"/><g class="cls-31"><path class="cls-13" d="M185.89,144.49c.92.21-15.1,59.52-15.1,59.52l-5.56-5.21,15.58-57.46Z"/><path class="cls-13" d="M205.59,185.36l-4.37,4.07c-.46.83-53.46-30.23-53.46-30.23"/></g><polygon class="cls-32" points="216 230.28 139.72 212.16 141.19 181.44 221.77 207.63 216 230.28"/><path class="cls-33" d="M210.26,228.78s3.42-1,1.8-2.35c-3.24-2.71-5.48,1.61-5.48,1.61l-7.43-1.76A9.2,9.2,0,0,0,210.26,228.78Z"/><path class="cls-33" d="M147.36,213.84s-2.61-2.42-.55-2.91c4.11-1,4.17,3.91,4.17,3.91l7.43,1.76A9.2,9.2,0,0,1,147.36,213.84Z"/><path class="cls-30" d="M208.52,154.61a5,5,0,1,1,3.34,6.24A5,5,0,0,1,208.52,154.61Zm.4.13a4.58,4.58,0,1,0,5.71-3.06A4.58,4.58,0,0,0,208.92,154.74Z"/><path class="cls-30" d="M204.2,153.31a5,5,0,1,1,3.34,6.24A5,5,0,0,1,204.2,153.31Zm.4.12a4.58,4.58,0,1,0,5.71-3.06A4.58,4.58,0,0,0,204.6,153.43Z"/><polygon class="cls-30" points="192.05 122.65 183.99 119.76 180.28 135.39 188.34 138.27 192.05 122.65"/><circle class="cls-4" cx="83" cy="25" r="25"/><text class="cls-34" transform="translate(77 37)">1</text></g></g></g></svg>